# AST/ASF file generated using VICON BodyLanguage
# -----------------------------------------------
:version 1.10
:name VICON
:units
  mass 1.0
  length 0.45
  angle deg
:documentation
   .ast/.asf automatically generated from VICON data using
   VICON BodyBuilder and BodyLanguage model FoxedUp or BRILLIANT.MOD
:root
   order TX TY TZ RX RY RZ
   axis XYZ
   position 0 0 0  
   orientation 0 0 0 
:bonedata
  begin
     id 1 
     name lhipjoint
     direction 0.611804 -0.747784 0.257906 
     length 2.29243 
     axis 0 0 0  XYZ
  end
  begin
     id 2 
     name lfemur
     direction 0.34202 -0.939693 0  
     length 7.31159  
     axis 0 0 20  XYZ
    dof rx ry rz
    limits (-160.0 20.0)
           (-70.0 70.0)
           (-60.0 70.0)
  end
  begin
     id 3 
     name ltibia
     direction 0.34202 -0.939693 0   
     length 7.33391   
     axis 0 0 20   XYZ
    dof rx
    limits (-10.0 170.0)
  end
  begin
     id 4 
     name lfoot
     direction 0.122263 -0.335914 0.933924   
     length 1.76083   
     axis -90 7.62852e-016 20   XYZ
    dof rx rz
    limits (-45.0 90.0)
           (-70.0 20.0)
  end
  begin
     id 5 
     name ltoes
     direction 1.53533e-011 -4.2177e-011 1   
     length 0.879206   
     axis -90 7.62852e-016 20   XYZ
    dof rx
    limits (-90.0 20.0)
  end
  begin
     id 6 
     name rhipjoint
     direction -0.646469 -0.721248 0.248754   
     length 2.37677  
     axis 0 0 0  XYZ 
  end
  begin
     id 7 
     name rfemur
     direction -0.34202 -0.939693 0   
     length 7.18623   
     axis 0 0 -20   XYZ
    dof rx ry rz
    limits (-160.0 20.0)
           (-70.0 70.0)
           (-70.0 60.0)
  end
  begin
     id 8 
     name rtibia
     direction -0.34202 -0.939693 0   
     length 7.36567   
     axis 0 0 -20   XYZ
    dof rx
    limits (-10.0 170.0)
 end
 begin
     id 9 
     name rfoot
     direction -0.126681 -0.348054 0.928876   
     length 1.71902  
     axis -90 -7.62852e-016 -20   XYZ
    dof rx rz
    limits (-45.0 90.0)
           (-20.0 70.0)
  end
  begin
     id 10 
     name rtoes
     direction -1.53551e-011 -4.21898e-011 1   
     length 0.857792   
     axis -90 -7.62852e-016 -20   XYZ
    dof rx
    limits (-90.0 20.0)
  end
  begin
     id 11 
     name lowerback
     direction 0.0106509 0.999778 0.0181844   
     length 2.07668   
     axis 0 0 0   XYZ
    dof rx ry rz
    limits (-20.0 45.0)
           (-30.0 30.0)
           (-30.0 30.0)
  end
  begin
     id 12 
     name upperback
     direction -0.00456018 0.999989 -0.000590935   
     length 2.08011   
     axis 0 0 0   XYZ
    dof rx ry rz
    limits (-20.0 45.0)
           (-30.0 30.0)
           (-30.0 30.0)
  end
  begin
     id 13 
     name thorax
     direction -0.00910382 0.999916 -0.00923765   
     length 2.07397   
     axis 0 0 0   XYZ
    dof rx ry rz
    limits (-20.0 45.0)
           (-30.0 30.0)
           (-30.0 30.0)
  end
  begin
     id 14 
     name lowerneck
     direction 0.00171967 0.99778 0.0665733   
     length 1.67556   
     axis 0 0 0   XYZ
    dof rx ry rz
    limits (-20.0 45.0)
           (-30.0 30.0)
           (-30.0 30.0)
  end
  begin
     id 15 
     name upperneck
     direction -0.0143166 0.991302 -0.130828   
     length 1.68462   
     axis 0 0 0   XYZ
    dof rx ry rz
    limits (-20.0 45.0)
           (-30.0 30.0)
           (-30.0 30.0)
  end
  begin
     id 16
     name head
     direction -0.00606378 0.998665 -0.0512995  
     length 1.69269  
     axis 0 0 0   XYZ
    dof rx ry rz
    limits (-20.0 45.0)
           (-30.0 30.0)
           (-30.0 30.0)
  end
  begin
     id 17 
     name lclavicle
     direction 0.9638 0.179341 0.197297  
     length 4.12888  
     axis 0 0 0   XYZ
    dof ry rz
    limits (-20.0 10.0)
           (0.0 20.0)
  end
  begin
     id 18 
     name lhumerus
     direction 1 -4.48972e-011 -2.47351e-027   
     length 5.01834   
     axis -180 -30 -90   XYZ
    dof rx ry rz
    limits (-60.0 90.0)
           (-90.0 90.0)
           (-90.0 90.0)
  end
  begin
     id 19
     name lradius
     direction 1 -4.48965e-011 1.51591e-026   
     length 3.4869   
     axis -180 -30 -90   XYZ
    dof rx
    limits (-10.0 170.0)
  end
  begin
     id 20
     name lwrist
     direction 1 -4.48957e-011 2.70032e-026   
     length 1.74345   
     axis -1.81515e-014 90 90   XYZ
    dof ry
    limits (-180.0 0.0)
 end
  begin
     id 21 
     name lhand
     direction 1 -4.48951e-011 5.40064e-026   
     length 0.76799   
     axis -3.44607e-014 90 90   XYZ
    dof rx rz
    limits (-90.0 90.0)
           (-45.0 45.0)
  end
  begin
     id 22 
     name lfingers
     direction 1 -4.48971e-011 1.08013e-025   
     length 0.619174   
     axis -6.89214e-014 90 90   XYZ
    dof rx
    limits (0.0 90.0)
  end
  begin
     id 23
     name lthumb
     direction 0.707107 -6.34931e-011 0.707107   
     length 0.889013   
     axis -90 45 2.85299e-015   XYZ
    dof rx rz
    limits (-45.0 45.0)
           (-45.0 45.0)
  end
  begin
     id 24 
     name rclavicle
     direction -0.961409 0.252588 0.109054   
     length 4.04305  
     axis 0 0 0   XYZ 
    dof ry rz
    limits (-10.0 20.0)
           (-20.0 0.0)
  end
  begin
     id 25 
     name rhumerus
     direction -1 -4.4897e-011 1.33872e-017  
     length 4.70164   
     axis -180 30 90   XYZ
    dof rx ry rz
    limits (-90.0 60.0)
           (-90.0 90.0)
           (-90.0 90.0)
  end
  begin
     id 26 
     name rradius
     direction -1 -4.48954e-011 1.83844e-026   
     length 3.49911   
     axis -180 30 90   XYZ
    dof rx
    limits (-10.0 170.0)
  end
  begin
     id 27 
     name rwrist
     direction -1 -4.49008e-011 2.70032e-026   
     length 1.74955   
     axis -1.81515e-014 -90 -90   XYZ
    dof ry
    limits (-180.0 0.0)
  end
  begin
     id 28
     name rhand
     direction -1 -4.48916e-011 5.40064e-026   
     length 0.739335   
     axis -3.44607e-014 -90 -90   XYZ
    dof rx rz
    limits (-90.0 90.0)
           (-45.0 45.0)
  end
  begin
     id 29
     name rfingers
     direction -1 -4.48987e-011 1.08013e-025   
     length 0.596071   
     axis -6.89214e-014 -90 -90   XYZ
    dof rx
    limits (0.0 90.0)
  end
  begin
     id 30
     name rthumb
     direction -0.707107 -6.34935e-011 0.707107   
     length 0.855843   
     axis -90 -45 -2.85299e-015   XYZ
    dof rx rz
    limits (-45.0 45.0)
           (-45.0 45.0)
  end
:hierarchy
  begin
    root lhipjoint rhipjoint lowerback
    lhipjoint lfemur
    lfemur ltibia
    ltibia lfoot
    lfoot ltoes
    rhipjoint rfemur
    rfemur rtibia
    rtibia rfoot
    rfoot rtoes
    lowerback upperback
    upperback thorax
    thorax lowerneck lclavicle rclavicle
    lowerneck upperneck
    upperneck head
    lclavicle lhumerus
    lhumerus lradius
    lradius lwrist
    lwrist lhand lthumb
    lhand lfingers
    rclavicle rhumerus
    rhumerus rradius
    rradius rwrist
    rwrist rhand rthumb
    rhand rfingers
  end

#!OML:ASF I:\salsa\salsa 7_09\Patient 1\Session 1\dancermale.ASF
:FULLY-SPECIFIED
:DEGREES
122
root -7.26881 17.4237 -0.47001 32.975 84.9005 26.0212
lowerback -8.08666 2.1632 -0.723378
upperback -1.66121 3.05343 -1.95061
thorax 2.87939 1.54148 -1.28783
lowerneck -9.37937 -0.68608 0.945478
upperneck 22.6473 0.109158 -3.40475
head 8.5861 -0.0322439 -1.26827
rclavicle -1.67725e-015 -2.18663e-015
rhumerus -34.9937 -18.2626 -86.5949
rradius 28.8554
rwrist 26.85
rhand -25.8129 7.54308
rfingers 7.12502
rthumb 0.726409 -22.4354
lclavicle -1.67725e-015 -2.18663e-015
lhumerus -26.6935 10.5447 86.6673
lradius 30.3981
lwrist 16.205
lhand -15.8404 48.0678
lfingers 7.12502
lthumb 10.3542 77.7928
rfemur -21.0246 -6.51663 14.2036
rtibia 63.4579
rfoot -6.50811 -10.8104
rtoes 14.7925
lfemur -11.7021 9.76568 -24.1474
ltibia 11.0609
lfoot -13.0339 0.456347
ltoes 9.47061
123
root -7.13134 17.4278 -0.502683 33.2021 85.1045 26.4456
lowerback -7.96846 2.02851 -0.635046
upperback -1.59752 2.86099 -1.88059
thorax 2.87647 1.44515 -1.28832
lowerneck -9.45857 -0.707801 0.877347
upperneck 22.8812 0.090645 -3.33822
head 8.68049 -0.0388785 -1.23839
rclavicle -7.00095e-015 2.38542e-015
rhumerus -34.7249 -18.1747 -86.6165
rradius 29.1035
rwrist 26.6525
rhand -25.6809 7.53628
rfingers 7.12502
rthumb 0.853929 -22.4418
lclavicle -7.00095e-015 2.38542e-015
lhumerus -25.7545 10.1324 87.201
lradius 31.1788
lwrist 18.2415
lhand -15.7958 48.3742
lfingers 7.12502
lthumb 10.3971 78.0971
rfemur -22.2604 -6.3295 14.6169
rtibia 62.5821
rfoot -8.38799 -10.8499
rtoes 15.3689
lfemur -10.7023 9.70043 -24.1156
ltibia 10.6257
lfoot -13.3293 0.341959
ltoes 8.45144
124
root -7.00667 17.4331 -0.531051 32.8453 85.5171 26.1252
lowerback -7.89779 1.8565 -0.413391
upperback -1.5469 2.60731 -1.77524
thorax 2.88927 1.31929 -1.3316
lowerneck -9.60976 -0.700363 0.872018
upperneck 22.9535 0.0989439 -3.32692
head 8.73367 -0.0368414 -1.2344
rclavicle -1.27657e-015 -5.96354e-016
rhumerus -34.3557 -17.9051 -86.7615
rradius 29.3873
rwrist 26.2479
rhand -25.475 7.62503
rfingers 7.12502
rthumb 1.05284 -22.3521
lclavicle -1.27657e-015 -5.96354e-016
lhumerus -24.7566 9.86485 87.6736
lradius 32.1135
lwrist 20.0104
lhand -15.4789 48.6872
lfingers 7.12502
lthumb 10.7028 78.3945
rfemur -23.6668 -6.16223 15.264
rtibia 61.3947
rfoot -10.1287 -11.2791
rtoes 13.5965
lfemur -10.1453 9.43141 -23.9111
ltibia 10.5464
lfoot -13.4621 0.383151
ltoes 6.67937
125
root -6.88072 17.433 -0.558454 33.3542 85.9098 26.6507
lowerback -7.83717 1.71267 -0.214977
upperback -1.51891 2.39561 -1.71492
thorax 2.88521 1.21481 -1.40392
lowerneck -9.65496 -0.740287 0.849052
upperneck 22.946 0.0236396 -3.24228
head 8.7378 -0.0673011 -1.2099
rclavicle -5.81368e-015 4.77083e-015
rhumerus -34.0878 -17.5661 -86.901
rradius 29.7686
rwrist 25.7057
rhand -25.3158 7.63509
rfingers 7.12502
rthumb 1.20659 -22.3412
lclavicle -5.81368e-015 4.77083e-015
lhumerus -23.8722 9.4235 88.1701
lradius 33.2654
lwrist 21.8755
lhand -15.2686 49.1246
lfingers 7.12502
lthumb 10.9057 78.8214
rfemur -24.9837 -5.98929 15.771
rtibia 59.8211
rfoot -11.4179 -11.8978
rtoes 10.689
lfemur -9.68656 9.19149 -23.7975
ltibia 10.6021
lfoot -13.4579 0.431846
ltoes 3.66289
126
root -6.75607 17.4273 -0.582277 34.7853 86.3137 28.0899
lowerback -7.74698 1.59325 -0.0329671
upperback -1.50958 2.21926 -1.68966
thorax 2.84613 1.12814 -1.50057
lowerneck -9.63982 -0.806915 0.837806
upperneck 22.8902 -0.099399 -3.13023
head 8.71311 -0.115884 -1.18224
rclavicle -8.60365e-016 -1.66979e-014
rhumerus -33.9348 -17.319 -86.9892
rradius 30.2567
rwrist 25.2245
rhand -25.1554 7.59465
rfingers 7.12502
rthumb 1.36147 -22.3807
lclavicle -8.60365e-016 -1.66979e-014
lhumerus -23.0044 8.79761 88.6942
lradius 34.4787
lwrist 23.8755
lhand -15.2377 49.5296
lfingers 7.12502
lthumb 10.9355 79.2248
rfemur -26.1642 -5.80407 16.1627
rtibia 57.8588
rfoot -12.4371 -12.5628
rtoes 8.83625
lfemur -9.2908 9.07006 -23.7218
ltibia 10.7493
lfoot -13.6881 0.339122
ltoes 1.98053
